<?xml version="1.0" encoding="utf-8"?>
<!-- Generator: Adobe Illustrator 19.0.0, SVG Export Plug-In . SVG Version: 6.00 Build 0)  -->
<svg version="1.1" xmlns="http://www.w3.org/2000/svg" xmlns:xlink="http://www.w3.org/1999/xlink" x="0px" y="0px" width="70px"
	 height="82.8px" viewBox="0 0 70 82.8" style="enable-background:new 0 0 70 82.8;" xml:space="preserve">
<style type="text/css">
	.st0{fill:none;stroke:#ffffff;stroke-miterlimit:10;}
	.st1{fill:#ffffff;}
</style>
<g id="Layer_3">
	<path id="XMLID_7_" class="st0" d="M4,1.2v49.1C4,67.4,17.9,81.2,35,81.2c17.1,0,30.9-13.9,30.9-30.9V1.2H4z"/>
	<g id="XMLID_3_">
		<path id="XMLID_174_" class="st1" d="M20.9,21.8c-0.3,0.1-1,0.3-1.7,0.3c-0.9,0-1.6-0.2-2.1-0.7c-0.5-0.5-0.8-1.2-0.8-2
			c0-1.7,1.2-2.8,3-2.8c0.7,0,1.2,0.1,1.4,0.3l-0.2,0.8c-0.3-0.1-0.7-0.2-1.2-0.2c-1.2,0-2,0.7-2,1.9c0,1.2,0.8,2,1.9,2
			c0.4,0,0.6,0,0.7-0.1v-1.3h-1V19h1.9V21.8z"/>
		<path id="XMLID_176_" class="st1" d="M26.3,20.5L25.9,22h-1l1.7-5.4h1.3l1.8,5.4h-1.1L28,20.5H26.3z M27.9,19.7l-0.4-1.3
			c-0.1-0.3-0.2-0.7-0.3-1h0c-0.1,0.3-0.2,0.7-0.3,1l-0.4,1.3H27.9z"/>
		<path id="XMLID_179_" class="st1" d="M38.2,19.8c0-0.7-0.1-1.5-0.1-2.3h0c-0.2,0.7-0.4,1.4-0.6,2.1l-0.8,2.3h-0.8l-0.7-2.3
			c-0.2-0.7-0.4-1.4-0.5-2.1h0c0,0.7-0.1,1.6-0.1,2.3L34.4,22h-0.9l0.4-5.4h1.3l0.7,2.2c0.2,0.6,0.4,1.3,0.5,1.9h0
			c0.1-0.6,0.3-1.2,0.5-1.9l0.7-2.2H39l0.3,5.4h-1L38.2,19.8z"/>
		<path id="XMLID_181_" class="st1" d="M46.6,19.6h-2v1.6h2.3V22h-3.3v-5.4h3.1v0.8h-2.2v1.4h2V19.6z"/>
		<path id="XMLID_183_" class="st1" d="M51,20.9c0.3,0.2,0.8,0.3,1.3,0.3c0.6,0,1-0.3,1-0.7c0-0.4-0.3-0.6-1-0.9
			c-0.9-0.3-1.5-0.8-1.5-1.6c0-0.9,0.7-1.6,1.9-1.6c0.6,0,1,0.1,1.3,0.3l-0.2,0.8c-0.2-0.1-0.6-0.3-1.1-0.3c-0.6,0-0.9,0.3-0.9,0.6
			c0,0.4,0.3,0.6,1,0.9c0.9,0.4,1.4,0.8,1.4,1.6c0,0.9-0.7,1.6-2,1.6c-0.6,0-1.2-0.2-1.5-0.3L51,20.9z"/>
	</g>
	<g id="XMLID_6_">
		<path id="XMLID_26_" class="st1" d="M25.9,6.6L25.9,6.6c-0.2,0.5-0.3,1.1-0.5,1.6l-0.7,2.1h2.4l-0.7-2.1C26.1,7.7,26,7.1,25.9,6.6
			z"/>
		<path id="XMLID_29_" class="st1" d="M0,4.2v11h70v-11H0z M9.2,14H7.5V5.3h1.7V14z M19.2,14L19,10.5C19,9.3,18.9,8,18.9,6.8h0
			c-0.3,1.1-0.7,2.2-1.1,3.3l-1.4,3.8h-1.3l-1.2-3.7c-0.4-1.1-0.7-2.3-0.9-3.4h0c0,1.1-0.1,2.5-0.2,3.7L12.5,14H11l0.6-8.7h2.2
			L15,8.8c0.3,1,0.6,2,0.9,3h0c0.2-0.9,0.6-2,0.9-3l1.3-3.5h2.2l0.5,8.7H19.2z M28.2,14l-0.8-2.5h-3L23.6,14h-1.8l3-8.7H27l3,8.7
			H28.2z M38.5,13.6c-0.6,0.2-1.8,0.5-3,0.5c-1.6,0-2.8-0.4-3.6-1.2c-0.8-0.7-1.3-1.9-1.3-3.2c0-2.7,2.1-4.5,5.2-4.5
			c1.1,0,2,0.2,2.5,0.4l-0.4,1.3c-0.5-0.2-1.1-0.4-2.1-0.4c-2,0-3.4,1.1-3.4,3.1c0,2,1.3,3.1,3.2,3.1c0.6,0,1.1-0.1,1.3-0.2v-2.2
			h-1.6V9.2h3.3V13.6z M41.9,14h-1.7V5.3h1.7V14z M51.2,14h-1.8l-2.4-3.8c-0.6-1-1.2-2-1.7-3l0,0c0.1,1.1,0.1,2.3,0.1,3.7V14h-1.6
			V5.3h1.9L48.2,9c0.6,1,1.2,2,1.6,2.9h0c-0.1-1.2-0.2-2.3-0.2-3.6v-3h1.6V14z M54.9,14h-1.7V5.3h1.7V14z M61.8,14l-1-1.7
			c-0.4-0.7-0.7-1.1-0.9-1.6h0c-0.2,0.5-0.5,1-0.8,1.6L58.1,14h-1.9l2.8-4.4l-2.7-4.3h1.9l1,1.8c0.3,0.5,0.5,1,0.8,1.5h0
			c0.2-0.5,0.4-0.9,0.7-1.5l1-1.8h1.9L61,9.6l2.8,4.4H61.8z"/>
	</g>
</g>
<g id="Layer_1">
	<path id="XMLID_5_" class="st1" d="M34.5,23.9c-12.7,0-23.3,8.6-26.5,20.3c2.8-6.4,9.1-10.8,16.5-10.8c9.9,0,18,8,18,18
		s-8,18-18,18c-7.4,0-13.7-4.4-16.5-10.8c3.2,11.7,13.8,20.3,26.5,20.3C49.7,78.8,62,66.5,62,51.4C62,36.2,49.7,23.9,34.5,23.9z"/>
	<circle id="XMLID_2_" class="st1" cx="23.8" cy="50.9" r="10.9"/>
	<g id="XMLID_173_">
	</g>
	<g id="XMLID_185_">
	</g>
	<g id="XMLID_186_">
	</g>
	<g id="XMLID_187_">
	</g>
	<g id="XMLID_188_">
	</g>
	<g id="XMLID_189_">
	</g>
</g>
</svg>
